<svg width="51" height="30" viewBox="0 0 51 30" fill="none" xmlns="http://www.w3.org/2000/svg">
<path d="M0 4C0 1.79086 1.79086 0 4 0H47C49.2091 0 51 1.79086 51 4V26C51 28.2091 49.2091 30 47 30H4C1.79086 30 0 28.2091 0 26V4Z" fill="#43609C"/>
<path fill-rule="evenodd" clip-rule="evenodd" d="M24.0134 15.0884H22V12.5137H24.0134C24.0134 12.5137 24.0134 11.4587 24.0134 10.3147C24.0134 8.58672 25.2027 7 27.9431 7C29.0527 7 29.8733 7.09989 29.8733 7.09989L29.8085 9.50408C29.8085 9.50408 28.9717 9.49644 28.0586 9.49644C27.0704 9.49644 26.9121 9.92407 26.9121 10.634C26.9121 11.1951 26.9121 9.43795 26.9121 12.5139H29.8871L29.7576 15.0885H26.9121V22.2391H24.0134V15.0884Z" fill="white"/>
</svg>
