<svg width="51" height="30" viewBox="0 0 51 30" fill="none" xmlns="http://www.w3.org/2000/svg">
<path d="M0 4C0 1.79086 1.79086 0 4 0H47C49.2091 0 51 1.79086 51 4V26C51 28.2091 49.2091 30 47 30H4C1.79086 30 0 28.2091 0 26V4Z" fill="#59CE5D"/>
<path fill-rule="evenodd" clip-rule="evenodd" d="M33.7427 13.4896C33.7427 9.9113 30.2117 7 25.8713 7C21.5315 7 18 9.9113 18 13.4896C18 16.6976 20.8004 19.3841 24.583 19.8922C24.8392 19.9482 25.1882 20.0637 25.2765 20.2864C25.3557 20.4885 25.3283 20.8053 25.3019 21.0096C25.3019 21.0096 25.2096 21.5737 25.1896 21.6941L25.1866 21.7115C25.1492 21.9276 25.0543 22.475 25.8713 22.1252C26.7114 21.7655 30.4043 19.4134 32.0558 17.4824H32.0555C33.1963 16.2114 33.7427 14.9216 33.7427 13.4896ZM24.272 11.7622H23.7198C23.6352 11.7622 23.5665 11.8321 23.5665 11.9181V15.4086C23.5665 15.4946 23.6352 15.5643 23.7198 15.5643H24.272C24.3567 15.5643 24.4254 15.4946 24.4254 15.4086V11.9181C24.4254 11.8321 24.3567 11.7622 24.272 11.7622ZM27.5203 11.7622H28.0723C28.157 11.7622 28.2256 11.8321 28.2256 11.9181V15.4086C28.2256 15.4946 28.157 15.5643 28.0723 15.5643H27.5203C27.5066 15.5643 27.4934 15.5624 27.481 15.559L27.4787 15.5584C27.4752 15.5575 27.4718 15.5562 27.4682 15.5551L27.466 15.5542L27.4637 15.5533L27.4563 15.5502L27.4533 15.5487L27.4489 15.5465L27.4446 15.5441L27.4405 15.5416L27.4351 15.5382C27.4348 15.5378 27.4343 15.5375 27.4338 15.5372L27.4335 15.537C27.4189 15.5269 27.4053 15.514 27.3945 15.4984L25.821 13.3354V15.4086C25.821 15.4946 25.7522 15.5643 25.6675 15.5643H25.1155C25.0308 15.5643 24.9622 15.4946 24.9622 15.4086V11.9181C24.9622 11.8321 25.0308 11.7622 25.1155 11.7622H25.6675L25.6729 11.7624L25.6808 11.7629L25.6844 11.7634L25.689 11.764C25.6909 11.7642 25.6933 11.7644 25.6953 11.7648L25.7002 11.7659L25.7041 11.767L25.7075 11.7677L25.7095 11.7683C25.7126 11.7692 25.7156 11.7701 25.7185 11.7714C25.7203 11.7717 25.7217 11.7725 25.7235 11.773L25.7324 11.7769L25.7372 11.7793L25.7415 11.7817L25.7453 11.784C25.747 11.7848 25.7486 11.7857 25.75 11.7868C25.7524 11.7882 25.7548 11.7899 25.757 11.7916L25.758 11.7923L25.7619 11.7954L25.7647 11.7976L25.7702 11.8024L25.7702 11.8024L25.7729 11.8051C25.7762 11.808 25.7792 11.8113 25.7823 11.8146L25.7823 11.8146L25.7832 11.8157C25.7873 11.8207 25.7915 11.826 25.7951 11.8315L27.367 13.9918V11.9181C27.367 11.8321 27.4354 11.7622 27.5203 11.7622ZM22.9411 14.6903H21.4409V11.9182C21.4409 11.8321 21.3723 11.7622 21.2876 11.7622H20.7356C20.6509 11.7622 20.5821 11.8321 20.5821 11.9182V15.4083V15.4085C20.5821 15.4505 20.5985 15.4884 20.625 15.5163L20.6258 15.5172L20.6272 15.5187L20.6295 15.5209C20.6571 15.5478 20.6942 15.5643 20.7353 15.5643H20.7356H22.9411C23.0258 15.5643 23.0943 15.4945 23.0943 15.4083V14.8463C23.0943 14.7602 23.0258 14.6903 22.9411 14.6903ZM31.2745 12.4803C31.2745 12.5664 31.206 12.6363 31.1213 12.6363H29.6212V13.2262H31.1213C31.206 13.2262 31.2745 13.2962 31.2745 13.3824V13.9442C31.2745 14.0306 31.206 14.1003 31.1213 14.1003H29.6212V14.6903H31.1213C31.206 14.6903 31.2745 14.7604 31.2745 14.8465V15.4084C31.2745 15.4945 31.206 15.5646 31.1213 15.5646H28.9158H28.9155C28.8744 15.5646 28.8371 15.5477 28.8097 15.5209L28.8074 15.5189L28.8052 15.5164C28.7787 15.4885 28.7623 15.4505 28.7623 15.4087V15.4084V11.9184V11.9181C28.7623 11.8764 28.7787 11.8387 28.8048 11.8106L28.8074 11.8079L28.8092 11.8062C28.8369 11.7791 28.874 11.7622 28.9155 11.7622H28.9158H31.1213C31.206 11.7622 31.2745 11.8321 31.2745 11.9184V12.4803Z" fill="white"/>
</svg>
