<svg width="51" height="30" viewBox="0 0 51 30" fill="none" xmlns="http://www.w3.org/2000/svg">
<path d="M0 4C0 1.79086 1.79086 0 4 0H47C49.2091 0 51 1.79086 51 4V26C51 28.2091 49.2091 30 47 30H4C1.79086 30 0 28.2091 0 26V4Z" fill="#34AADF"/>
<path d="M18.0183 13.9812C18.0183 13.9812 25.3645 10.9663 27.9123 9.90472C28.889 9.48011 32.2012 8.12124 32.2012 8.12124C32.2012 8.12124 33.7299 7.52678 33.6025 8.97052C33.56 9.56503 33.2203 11.6457 32.8806 13.8963C32.371 17.0811 31.819 20.5631 31.819 20.5631C31.819 20.5631 31.7341 21.5398 31.0122 21.7096C30.2903 21.8794 29.1013 21.1151 28.889 20.9452C28.7191 20.8179 25.7042 18.907 24.6002 17.9728C24.3029 17.718 23.9632 17.2085 24.6426 16.614C26.1713 15.2127 27.9972 13.4717 29.1013 12.3676C29.6109 11.858 30.1204 10.6691 27.9972 12.1128C24.9824 14.1936 22.0099 16.1469 22.0099 16.1469C22.0099 16.1469 21.3305 16.5715 20.0566 16.1893C18.7826 15.8072 17.2964 15.2976 17.2964 15.2976C17.2964 15.2976 16.2773 14.6607 18.0183 13.9812Z" fill="white"/>
</svg>
