<svg width="51" height="30" viewBox="0 0 51 30" fill="none" xmlns="http://www.w3.org/2000/svg">
<path d="M0 4C0 1.79086 1.79086 0 4 0H47C49.2091 0 51 1.79086 51 4V26C51 28.2091 49.2091 30 47 30H4C1.79086 30 0 28.2091 0 26V4Z" fill="#55ACEE"/>
<path fill-rule="evenodd" clip-rule="evenodd" d="M32.7386 9.4097C33.5903 8.93359 34.2445 8.17968 34.5525 7.28128C33.7553 7.72223 32.8725 8.04232 31.9327 8.21484C31.1803 7.46711 30.1081 7 28.9216 7C26.6433 7 24.7961 8.72245 24.7961 10.847C24.7961 11.1486 24.8326 11.4422 24.9029 11.7238C21.4743 11.5633 18.4346 10.0317 16.4 7.70413C16.0449 8.27231 15.8414 8.93313 15.8414 9.63819C15.8414 10.9729 16.5697 12.1505 17.6767 12.8403C17.0003 12.8204 16.3643 12.6473 15.8081 12.3592C15.8077 12.3752 15.8077 12.3913 15.8077 12.4076C15.8077 14.2715 17.2298 15.8264 19.117 16.1799C18.7708 16.2678 18.4064 16.3148 18.0301 16.3148C17.7641 16.3148 17.5057 16.2906 17.2538 16.2458C17.7789 17.7741 19.3023 18.8865 21.1076 18.9174C19.6957 19.9494 17.9169 20.5643 15.9841 20.5643C15.6511 20.5643 15.3227 20.5461 15 20.5105C16.8257 21.6021 18.9942 22.2391 21.3238 22.2391C28.9118 22.2391 33.0613 16.3769 33.0613 11.293C33.0613 11.1262 33.0572 10.9604 33.0493 10.7953C33.8555 10.253 34.5549 9.57538 35.1079 8.80393C34.3682 9.10995 33.573 9.31669 32.7386 9.4097Z" fill="white"/>
</svg>
