<svg width="51" height="30" viewBox="0 0 51 30" fill="none" xmlns="http://www.w3.org/2000/svg">
<path d="M0 4C0 1.79086 1.79086 0 4 0H47C49.2091 0 51 1.79086 51 4V26C51 28.2091 49.2091 30 47 30H4C1.79086 30 0 28.2091 0 26V4Z" fill="#25D366"/>
<path fill-rule="evenodd" clip-rule="evenodd" d="M29.8659 17.7608C29.685 18.28 28.9669 18.7105 28.3941 18.8363C28.0022 18.921 27.4903 18.9887 25.7672 18.2628C23.5631 17.3351 22.1438 15.0594 22.0331 14.9118C21.9272 14.7642 21.1425 13.7068 21.1425 12.6133C21.1425 11.5198 21.6891 10.9873 21.9094 10.7587C22.0903 10.5711 22.3894 10.4854 22.6762 10.4854C22.7691 10.4854 22.8525 10.4901 22.9275 10.4939C23.1478 10.5034 23.2584 10.5168 23.4037 10.8702C23.5847 11.3131 24.0253 12.4066 24.0778 12.519C24.1312 12.6314 24.1847 12.7838 24.1097 12.9315C24.0394 13.0839 23.9775 13.1515 23.8669 13.2811C23.7562 13.4106 23.6512 13.5097 23.5406 13.6487C23.4394 13.7697 23.325 13.8992 23.4525 14.1231C23.58 14.3422 24.0206 15.0728 24.6694 15.6595C25.5066 16.4168 26.1853 16.6587 26.4281 16.7616C26.6091 16.8378 26.8247 16.8197 26.9569 16.6768C27.1247 16.493 27.3319 16.1882 27.5428 15.8881C27.6928 15.6729 27.8822 15.6462 28.0809 15.7224C28.2834 15.7938 29.355 16.332 29.5753 16.4435C29.7956 16.5559 29.9409 16.6092 29.9944 16.7035C30.0469 16.7978 30.0469 17.2408 29.8659 17.7608ZM25.5019 7H25.4981C21.3628 7 18 10.4174 18 14.6196C18 16.2863 18.5287 17.8312 19.4278 19.0856L18.4931 21.9163L21.3759 20.98C22.5619 21.7782 23.9766 22.2391 25.5019 22.2391C29.6372 22.2391 33 18.8208 33 14.6196C33 10.4183 29.6372 7 25.5019 7Z" fill="white"/>
</svg>
